<svg width="118" height="20" viewBox="0 0 118 20" fill="none" xmlns="http://www.w3.org/2000/svg">
<path d="M13.6898 0.332035C9.90715 0.329952 5.96049 1.23617 1.9771 2.41166C1.47128 2.51999 0.977698 2.87206 0.716709 3.30746C0.476775 3.71786 0.389615 4.12983 0.314697 4.56159C-0.0721349 6.86776 -0.0251274 9.13227 0.055177 11.6416C0.0728047 12.216 0.153109 12.8967 0.405284 13.3108C0.668722 13.729 1.12019 13.9946 1.65931 14.0816C2.34806 14.189 3.03898 14.2802 3.73155 14.355L3.57878 18.8851C3.55527 19.2455 3.72078 19.545 3.92643 19.7174C4.11055 19.8663 4.31572 19.9325 4.52627 19.9491C4.94738 19.983 5.44145 19.7913 5.68677 19.2945C6.76157 17.0945 7.43583 16.1232 8.77995 14.6618C12.2849 14.7534 15.3448 14.5462 18.8092 14.2738C20.0338 14.2399 20.8746 13.1749 21.0969 12.3244C21.7613 10.1203 21.8647 7.39952 21.9352 4.64908C21.965 3.55902 21.6096 2.48874 20.9803 1.92313C20.382 1.407 19.6573 1.22003 18.9933 1.02837C17.1487 0.58411 15.3037 0.345576 13.6898 0.332035ZM18.7284 2.05594C19.3933 2.24812 19.9795 2.43301 20.3492 2.75227C20.9661 3.44964 20.9456 3.91369 20.9368 4.66627C20.8672 7.3339 20.7468 9.92288 20.1807 11.8848C19.9369 12.6165 19.5118 13.1374 18.7088 13.216C15.1793 13.4936 12.117 13.7082 8.5694 13.6009C8.50032 13.5985 8.43152 13.6113 8.36726 13.6383C8.303 13.6654 8.24464 13.7062 8.19579 13.7582C6.70526 15.3592 5.94286 16.4716 4.80685 18.7976C4.7804 18.8507 4.72311 18.883 4.6526 18.8887C4.6051 18.8861 4.58601 18.8471 4.58307 18.8117L4.73682 13.8993C4.74613 13.6342 4.54047 13.3811 4.2927 13.3525C3.46425 13.2683 2.63806 13.1606 1.81502 13.0295C1.45952 12.9717 1.32829 12.8681 1.23085 12.7139C1.06143 12.2843 1.06535 12.0186 1.05213 11.6056C0.972801 9.11873 0.933628 6.94537 1.29255 4.78293C1.32585 4.46315 1.43847 4.13608 1.55795 3.86265C1.75577 3.5335 2.05887 3.48506 2.36295 3.39548C6.25869 2.25124 10.0702 1.39554 13.6584 1.39294C15.4173 1.46064 17.2643 1.64814 18.7284 2.05594ZM5.273 6.26935C4.73633 6.95318 4.78971 7.88179 5.20445 8.50365C5.42088 8.82916 5.75875 9.09113 6.17006 9.1505C6.70428 9.19738 7.04313 8.96718 7.4089 8.7026C8.07141 8.09012 8.1385 7.02141 7.63464 6.24955C7.37805 5.85634 6.96772 5.62041 6.54857 5.60374C5.97469 5.60999 5.58492 5.88238 5.273 6.26882V6.26935ZM11.0784 5.71103C10.5437 5.72926 10.1113 6.123 9.84741 6.54798C9.54529 7.0339 9.36901 7.64222 9.61335 8.23855C10.0834 9.38591 11.7076 9.37185 12.3555 8.20574C12.6541 7.66826 12.5778 7.05734 12.3555 6.61413C12.1341 6.17143 11.7992 5.81051 11.312 5.7277C11.2348 5.7142 11.1566 5.70862 11.0784 5.71103ZM15.7914 5.81884C15.6249 5.81467 15.4535 5.83134 15.2929 5.87665C14.6505 6.05894 14.1035 6.76412 14.1863 7.6667C14.2284 8.12085 14.4248 8.56354 14.7788 8.86874C15.1328 9.17342 15.647 9.30987 16.189 9.19165C16.8119 9.05624 17.1977 8.5224 17.3265 8.00679C17.4553 7.49118 17.423 6.96568 17.1238 6.53965C16.9681 6.31948 16.7672 6.14007 16.5363 6.01515C16.3055 5.89022 16.0504 5.82307 15.7914 5.81884ZM6.50499 6.66412C6.62496 6.66517 6.71946 6.70579 6.8169 6.85474C7.0348 7.18911 6.97408 7.69586 6.75423 7.89898C6.53535 8.1021 6.39873 8.11981 6.30276 8.10627C6.20678 8.0922 6.10934 8.02189 6.02218 7.89065C5.8557 7.64066 5.80673 7.2365 6.02561 6.94797C6.14215 6.78339 6.35613 6.68079 6.50548 6.66412H6.50499ZM11.1484 6.78027C11.167 6.78339 11.3756 6.91203 11.4755 7.11151C11.5754 7.31098 11.594 7.49639 11.499 7.6667C11.2165 8.17501 10.6157 8.03752 10.5246 7.81617C10.4903 7.7318 10.5163 7.39275 10.6813 7.12869C10.8453 6.8636 11.052 6.76412 11.1484 6.77975V6.78027ZM16.3212 7.16984C16.3516 7.21307 16.4255 7.50316 16.3682 7.73336C16.3104 7.96356 16.2164 8.10575 15.9863 8.15574C15.6915 8.22033 15.526 8.15574 15.4021 8.04794C15.2778 7.94117 15.194 7.76044 15.1759 7.56722C15.1318 7.08807 15.2934 6.97714 15.55 6.90422C15.8487 6.8261 16.1866 6.96255 16.3212 7.16984Z" fill="white"/>
<path d="M28.2031 2.47753C28.211 2.34211 28.2575 2.22024 28.3437 2.11243C28.3856 2.05958 28.4383 2.01758 28.4978 1.9896C28.5572 1.96163 28.6219 1.94842 28.6869 1.95098H32.0293C32.142 1.95098 32.258 2.00098 32.378 2.10045C32.4342 2.14338 32.4799 2.20003 32.5112 2.26565C32.5426 2.33126 32.5587 2.40392 32.5582 2.47753V8.15078H38.1506V2.47753C38.1506 2.33378 38.1976 2.21035 38.2911 2.1067C38.3851 2.00254 38.5066 1.95046 38.6569 1.95046H41.9543C42.1041 1.95046 42.2353 1.99056 42.348 2.07025C42.4606 2.15045 42.5169 2.27805 42.5169 2.45357V19.1978C42.5169 19.3733 42.4679 19.5051 42.37 19.5926C42.273 19.6806 42.1452 19.7244 41.9881 19.7244H38.6569C38.5071 19.7244 38.3851 19.6806 38.2911 19.5926C38.1976 19.5051 38.1506 19.3739 38.1506 19.1978V12.3996H32.5582V19.1978C32.5582 19.3655 32.5072 19.4947 32.4064 19.5869C32.305 19.6785 32.1679 19.7244 31.9951 19.7244H28.6869C28.3721 19.7244 28.211 19.5686 28.2031 19.2577V2.47753ZM58.9905 19.5213C58.8931 19.6088 58.7898 19.6645 58.6811 19.6884C58.5795 19.7117 58.476 19.7239 58.3721 19.7249H56.673C56.5378 19.7249 56.4213 19.6989 56.3239 19.6468C56.2259 19.5947 56.1437 19.5249 56.0761 19.4374C56.007 19.3465 55.9503 19.2457 55.9076 19.1379C55.8623 19.0253 55.8247 18.9094 55.795 18.7911L55.4464 17.2588C55.3338 17.5062 55.1707 17.7875 54.9567 18.1026C54.7252 18.4369 54.4506 18.735 54.1409 18.9879C53.8109 19.264 53.4167 19.4952 52.9594 19.6827C52.5016 19.8702 51.9766 19.9639 51.3837 19.9639C50.5287 19.9639 49.7521 19.7884 49.0544 19.4374C48.3712 19.0979 47.7634 18.6084 47.271 18.001C46.7799 17.3948 46.3989 16.6864 46.1291 15.8761C45.8588 15.0667 45.7237 14.2027 45.7237 13.2855V5.44566C45.7237 5.14254 45.7859 4.91338 45.9098 4.75766C46.0331 4.60194 46.23 4.52433 46.5003 4.52433H49.0994C49.4226 4.52433 49.6434 4.58162 49.7634 4.69777C49.8833 4.81339 49.9436 5.0389 49.9436 5.37379V13.1652C49.9436 13.5089 50.017 13.8339 50.1629 14.1412C50.3094 14.4485 50.5023 14.7193 50.7427 14.9547C50.9826 15.1901 51.2544 15.3761 51.5585 15.5115C51.8621 15.6469 52.1715 15.7146 52.4869 15.7146C52.7567 15.7146 53.0363 15.6469 53.3252 15.5115C53.616 15.3743 53.8853 15.1906 54.1238 14.9667C54.3677 14.7396 54.5684 14.4719 54.7261 14.1647C54.8838 13.8574 54.9621 13.5324 54.9621 13.1897V5.40972C54.9621 5.27431 54.9866 5.1389 55.0356 5.00297C55.0845 4.86755 55.1575 4.76339 55.2549 4.69152C55.3524 4.62798 55.4444 4.58423 55.5306 4.56027C55.6168 4.53631 55.7167 4.52381 55.8288 4.52381H58.3721C58.6943 4.52381 58.9269 4.60819 59.0694 4.77537C59.2119 4.94307 59.2834 5.1665 59.2834 5.44566V18.839C59.2834 18.99 59.2515 19.1301 59.1879 19.2577C59.1242 19.3853 59.0361 19.4853 58.9235 19.5567L58.9905 19.5213ZM72.0552 17.8692C71.8525 18.0848 71.6292 18.3161 71.3858 18.5635C71.142 18.8109 70.8736 19.0426 70.5813 19.2577C70.2871 19.4742 69.9699 19.653 69.6363 19.7905C69.2878 19.9323 68.9174 20.0033 68.5443 19.9999C67.5244 19.9999 66.5847 19.7968 65.7253 19.3895C64.8876 18.9985 64.1335 18.4304 63.5087 17.7197C62.8897 17.0135 62.4059 16.1818 62.0573 15.224C61.7082 14.2667 61.5338 13.2376 61.5338 12.1361C61.5338 11.0267 61.7082 9.99551 62.0573 9.04242C62.4059 8.08933 62.8897 7.25914 63.5087 6.55292C64.1327 5.84291 64.8872 5.27673 65.7253 4.88943C66.5847 4.48632 67.5244 4.28476 68.5443 4.28476C68.9571 4.28476 69.3341 4.34882 69.6754 4.47642C70.0048 4.59778 70.3185 4.7626 70.6092 4.96703C70.8908 5.1665 71.1493 5.39202 71.3858 5.64305C71.6218 5.8946 71.8451 6.13991 72.0552 6.37948V0.909346C72.0552 0.654146 72.1286 0.439049 72.2746 0.263533C72.421 0.0874972 72.6403 0 72.9331 0H75.4647C75.5626 0 75.6655 0.0218743 75.7742 0.0656229C75.8829 0.109892 75.9823 0.171349 76.0729 0.251554C76.1625 0.331239 76.2354 0.42707 76.2917 0.538525C76.348 0.6505 76.3764 0.773934 76.3764 0.909346V18.803C76.3764 19.4176 76.0729 19.7249 75.4647 19.7249H73.2593C73.1094 19.7249 72.9929 19.7041 72.9106 19.6645C72.8289 19.6255 72.7573 19.566 72.702 19.491C72.6394 19.4032 72.5883 19.3067 72.5502 19.2041C72.4972 19.069 72.441 18.9352 72.3818 18.803L72.0552 17.8692ZM65.5848 12.1361C65.581 12.6394 65.6591 13.1396 65.8154 13.6147C65.9692 14.073 66.1886 14.4704 66.474 14.8053C66.7622 15.1428 67.1125 15.4137 67.5033 15.6011C67.9048 15.7969 68.3494 15.8943 68.8371 15.8943C69.317 15.8943 69.769 15.8026 70.193 15.6193C70.6048 15.4438 70.9811 15.1857 71.3011 14.8589C71.6191 14.5317 71.8768 14.1441 72.0611 13.7162C72.252 13.2772 72.3593 12.8064 72.3818 12.3038V12.1361C72.3835 11.6352 72.2916 11.139 72.1115 10.6762C71.9371 10.2225 71.6832 9.80826 71.3633 9.45543C71.0426 9.103 70.6604 8.82048 70.2381 8.62368C69.7966 8.41798 69.3191 8.31396 68.8371 8.31849C68.3494 8.31849 67.9048 8.42004 67.5033 8.62368C67.1018 8.8268 66.759 9.1044 66.474 9.45543C66.1844 9.81476 65.9609 10.2289 65.8154 10.6762C65.6609 11.1453 65.583 11.639 65.5853 12.1361H65.5848ZM89.4411 17.8692C89.2384 18.0848 89.0151 18.3161 88.7712 18.5635C88.5274 18.8109 88.259 19.0426 87.9667 19.2577C87.6725 19.4742 87.3553 19.653 87.0217 19.7905C86.6732 19.9323 86.3028 20.0033 85.9297 19.9999C84.9098 19.9999 83.9701 19.7968 83.1112 19.3895C82.2734 18.9986 81.519 18.4305 80.8941 17.7197C80.2756 17.0135 79.7913 16.1818 79.4427 15.224C79.0941 14.2667 78.9193 13.2376 78.9193 12.1361C78.9193 11.0267 79.0941 9.99551 79.4427 9.04242C79.7913 8.08933 80.2751 7.25914 80.8941 6.55292C81.5183 5.84285 82.2729 5.27667 83.1112 4.88943C83.9701 4.48632 84.9098 4.28476 85.9297 4.28476C86.3425 4.28476 86.7196 4.34882 87.0608 4.47642C87.3902 4.59778 87.7039 4.7626 87.9946 4.96703C88.2762 5.1665 88.5347 5.39202 88.7712 5.64305C89.0077 5.8946 89.2305 6.13991 89.4406 6.37948V0.909346C89.4406 0.654146 89.514 0.439049 89.66 0.263533C89.8069 0.0874972 90.0257 0 90.3186 0H92.8501C92.948 0 93.0509 0.0218743 93.1596 0.0656229C93.2688 0.109892 93.3682 0.171349 93.4583 0.251554C93.5479 0.331239 93.6213 0.42707 93.6776 0.538525C93.7335 0.6505 93.7619 0.773934 93.7619 0.909346V18.803C93.7619 19.4176 93.4583 19.7249 92.8501 19.7249H90.6447C90.4948 19.7249 90.3783 19.7041 90.296 19.6645C90.2145 19.6254 90.1431 19.5659 90.0879 19.491C90.0252 19.4032 89.9742 19.3067 89.9361 19.2041C89.8829 19.0689 89.8266 18.9352 89.7672 18.803L89.4411 17.8692ZM82.9702 12.1361C82.9665 12.6394 83.0445 13.1396 83.2008 13.6147C83.3551 14.073 83.5745 14.4704 83.8594 14.8053C84.1477 15.1428 84.4983 15.4137 84.8892 15.6011C85.2907 15.7969 85.7348 15.8943 86.2225 15.8943C86.7024 15.8943 87.1544 15.8026 87.5784 15.6193C87.9904 15.4439 88.3668 15.1857 88.687 14.8589C89.0047 14.5316 89.2621 14.144 89.446 13.7162C89.6374 13.2772 89.7447 12.8064 89.7672 12.3038V12.1361C89.7689 11.6352 89.677 11.139 89.4969 10.6762C89.3225 10.2225 89.0686 9.80826 88.7487 9.45543C88.428 9.103 88.0458 8.82048 87.6235 8.62368C87.182 8.41798 86.7045 8.31396 86.2225 8.31849C85.7348 8.31849 85.2902 8.42004 84.8892 8.62368C84.4877 8.8268 84.1444 9.1044 83.8594 9.45543C83.5698 9.81476 83.3463 10.2289 83.2008 10.6762C83.0463 11.1453 82.9679 11.639 82.9702 12.1361ZM96.7556 0.921325C96.7556 0.666125 96.8154 0.451027 96.9353 0.275512C97.0558 0.099476 97.2619 0.0119788 97.5543 0.0119788H100.311C100.386 0.0119788 100.465 0.0338531 100.548 0.0776017C100.634 0.124781 100.712 0.187709 100.778 0.263533C100.85 0.343218 100.909 0.439049 100.958 0.550503C101.007 0.662479 101.032 0.785912 101.032 0.921325V18.803C101.032 19.1062 100.951 19.3353 100.789 19.491C100.628 19.6468 100.42 19.7244 100.165 19.7244H97.5543C97.2619 19.7244 97.0558 19.6462 96.9353 19.491C96.8154 19.3353 96.7556 19.1056 96.7556 18.803V0.921325ZM115.706 17.9052C115.053 18.5462 114.299 19.0589 113.478 19.4192C112.646 19.7836 111.755 19.9688 110.855 19.9639C109.827 19.9639 108.856 19.7645 107.941 19.365C107.046 18.9805 106.229 18.418 105.533 17.7078C104.839 16.9962 104.281 16.1487 103.89 15.212C103.485 14.2548 103.282 13.2136 103.282 12.0882C103.282 11.3861 103.363 10.7059 103.524 10.0476C103.68 9.40349 103.911 8.78245 104.211 8.1987C104.507 7.62413 104.87 7.09135 105.291 6.61281C105.711 6.13347 106.19 5.71668 106.714 5.37379C107.248 5.02648 107.824 4.75674 108.425 4.57173C109.057 4.37775 109.713 4.28111 110.371 4.28476C110.994 4.28476 111.598 4.37278 112.183 4.54829C112.768 4.72381 113.318 4.9712 113.832 5.28994C114.346 5.6092 114.816 5.99252 115.244 6.43938C115.666 6.87879 116.036 7.3711 116.346 7.90548C116.654 8.43597 116.895 9.0074 117.061 9.6049C117.23 10.2075 117.315 10.8278 117.315 11.4658C117.315 11.8809 117.309 12.2199 117.297 12.4835C117.286 12.7465 117.228 12.9564 117.123 13.1116C117.018 13.2678 116.844 13.3751 116.6 13.4345C116.356 13.4949 115.997 13.5246 115.525 13.5246H107.423C107.498 14.035 107.65 14.462 107.879 14.8058C108.091 15.1311 108.36 15.4094 108.672 15.625C108.972 15.8287 109.291 15.974 109.629 16.0625C109.942 16.1468 110.263 16.1908 110.585 16.1938C110.855 16.1938 111.133 16.1635 111.418 16.1042C111.698 16.0455 111.975 15.9655 112.245 15.8646C112.498 15.7712 112.742 15.655 112.976 15.5172C113.197 15.386 113.376 15.248 113.511 15.1047C113.631 15.0006 113.734 14.923 113.82 14.8709C113.906 14.8188 113.999 14.7933 114.096 14.7933C114.194 14.7933 114.293 14.8297 114.395 14.9011C114.518 14.9928 114.633 15.0969 114.737 15.212L115.93 16.6484C116.013 16.7526 116.065 16.8463 116.088 16.9297C116.11 17.0135 116.122 17.0995 116.122 17.187C116.122 17.3468 116.08 17.4843 115.998 17.6C115.915 17.7163 115.817 17.8191 115.706 17.9052ZM110.293 7.93516C110 7.93516 109.717 7.99714 109.443 8.12057C109.165 8.24672 108.906 8.414 108.672 8.61743C108.432 8.82472 108.217 9.06013 108.025 9.32366C107.842 9.57212 107.686 9.84107 107.558 10.1257H113.308C113.157 9.82564 112.986 9.53757 112.796 9.26377C112.616 9.00399 112.404 8.77058 112.166 8.56952C111.923 8.3661 111.649 8.20829 111.356 8.10287C111.052 7.99089 110.698 7.93516 110.293 7.93516Z" fill="white"/>
</svg>
